{
    "asset" : {
        "generator" : "Khronos glTF Blender I/O v1.7.33",
        "version" : "2.0"
    },
    "scene" : 0,
    "scenes" : [
        {
            "name" : "Scene",
            "nodes" : [
                0,
                11,
                27
            ]
        }
    ],
    "nodes" : [
        {
            "name" : "bow",
            "rotation" : [
                1,
                0,
                0,
                -1.6292068494294654e-07
            ],
            "scale" : [
                0.009999999776482582,
                0.009999999776482582,
                0.009999999776482582
            ]
        },
        {
            "name" : "Bone.002",
            "rotation" : [
                -0.2714102268218994,
                -1.5687897216096897e-14,
                -1.0892759405578545e-07,
                0.9624637961387634
            ],
            "translation" : [
                -4.313872392983087e-14,
                2.9635543823242188,
                2.491212001132226e-07
            ]
        },
        {
            "children" : [
                1
            ],
            "name" : "Bone.001",
            "rotation" : [
                0.35340017080307007,
                -4.483883930817001e-09,
                1.5370244454970816e-07,
                0.9354723691940308
            ],
            "scale" : [
                1,
                1,
                0.9999998807907104
            ],
            "translation" : [
                -2.321972773560929e-14,
                3.0685160160064697,
                -5.102670286305511e-08
            ]
        },
        {
            "children" : [
                2
            ],
            "name" : "Bone",
            "rotation" : [
                0.4774228036403656,
                0.5216010212898254,
                -0.4774225950241089,
                0.5216009616851807
            ],
            "scale" : [
                0.9999999403953552,
                0.9999994039535522,
                1
            ],
            "translation" : [
                -0.004714012145996094,
                0,
                0
            ]
        },
        {
            "name" : "Bone.005",
            "rotation" : [
                0.2714102268218994,
                -2.3993255163700863e-14,
                1.089276011612128e-07,
                0.9624637961387634
            ],
            "scale" : [
                0.9999999403953552,
                1,
                1
            ],
            "translation" : [
                -2.137308410224588e-14,
                2.963554859161377,
                1.0164654185018662e-07
            ]
        },
        {
            "children" : [
                4
            ],
            "name" : "Bone.004",
            "rotation" : [
                -0.3534001111984253,
                -8.177637456086018e-10,
                -1.4399806502751744e-07,
                0.9354723691940308
            ],
            "scale" : [
                1,
                0.9999999403953552,
                0.9999998807907104
            ],
            "translation" : [
                -3.7105660612244545e-14,
                3.0685157775878906,
                1.9743349355394457e-07
            ]
        },
        {
            "children" : [
                5
            ],
            "name" : "Bone.003",
            "rotation" : [
                -0.4774227738380432,
                0.5216010212898254,
                0.4774225950241089,
                0.5216009616851807
            ],
            "scale" : [
                0.9999999403953552,
                0.9999994039535522,
                1
            ],
            "translation" : [
                -2.0679515313825692e-25,
                2.8078904387053947e-24,
                6.938893490316922e-18
            ]
        },
        {
            "name" : "String",
            "rotation" : [
                -1,
                0,
                3.1391647326017846e-07,
                4.140876357456014e-23
            ],
            "translation" : [
                -0.004714012145996094,
                -2.0652048587799072,
                -2.7010089999433206e-22
            ]
        },
        {
            "name" : "IK.R",
            "rotation" : [
                -0.7071069478988647,
                2.0679766776731908e-16,
                0.7071065902709961,
                1.0722097741391596e-16
            ],
            "scale" : [
                1,
                0.9999999403953552,
                1
            ],
            "translation" : [
                5.439414024353027,
                -1.48471999168396,
                -2.2737367544323206e-13
            ]
        },
        {
            "name" : "IK.L",
            "rotation" : [
                -0.70710688829422,
                8.878123791689063e-10,
                0.7071066498756409,
                8.237733162275163e-09
            ],
            "scale" : [
                1,
                0.9999999403953552,
                1
            ],
            "translation" : [
                -5.444128036499023,
                -1.4847198724746704,
                2.84415591522702e-07
            ]
        },
        {
            "children" : [
                3,
                6,
                7,
                8,
                9
            ],
            "name" : "Main Bone",
            "rotation" : [
                -0.7071068286895752,
                -1.491000389819419e-08,
                2.4035548662482142e-08,
                0.7071068286895752
            ],
            "translation" : [
                0.004714012145996094,
                0,
                0
            ]
        },
        {
            "children" : [
                10
            ],
            "name" : "Armature"
        },
        {
            "name" : "Bone.004",
            "rotation" : [
                -0.47236692905426025,
                4.433828182533704e-14,
                -1.8957939573738258e-07,
                0.8814020156860352
            ],
            "scale" : [
                0.9999999403953552,
                0.9999999403953552,
                0.9999998807907104
            ],
            "translation" : [
                5.511518026907539e-15,
                1.950564980506897,
                -1.2812364502678975e-08
            ]
        },
        {
            "children" : [
                12
            ],
            "name" : "Bone.003",
            "rotation" : [
                0.24799510836601257,
                -2.0903789810233775e-09,
                1.0769617375672169e-07,
                0.9687613844871521
            ],
            "scale" : [
                1,
                1,
                0.9999999403953552
            ],
            "translation" : [
                1.0080810833442908e-13,
                1.6963376998901367,
                -2.48194623964082e-07
            ]
        },
        {
            "children" : [
                13
            ],
            "name" : "Bone.002",
            "rotation" : [
                0.33364173769950867,
                -8.730427936143315e-09,
                1.4643164547578635e-07,
                0.9426999688148499
            ],
            "scale" : [
                0.9999999403953552,
                1.0000003576278687,
                1.000000238418579
            ],
            "translation" : [
                -1.1388478593325757e-13,
                1.3915053606033325,
                -2.1284378703967377e-07
            ]
        },
        {
            "children" : [
                14
            ],
            "name" : "Bone.001",
            "rotation" : [
                -0.09278176724910736,
                -1.0973010056147814e-08,
                -2.1239150882479407e-08,
                0.9956864714622498
            ],
            "scale" : [
                0.9999998807907104,
                1.000000238418579,
                0.9999997615814209
            ],
            "translation" : [
                1.441678536533847e-14,
                1.5229192972183228,
                2.928921993827771e-08
            ]
        },
        {
            "children" : [
                15
            ],
            "name" : "Bone",
            "rotation" : [
                0.4855520725250244,
                0.5140421390533447,
                -0.48555195331573486,
                0.5140420794487
            ],
            "scale" : [
                0.9999997615814209,
                0.9999997019767761,
                1.0000001192092896
            ],
            "translation" : [
                7.62939453125e-06,
                0,
                0
            ]
        },
        {
            "name" : "Bone.009",
            "rotation" : [
                0.4723668694496155,
                2.418451689725678e-14,
                1.8957939573738258e-07,
                0.8814020156860352
            ],
            "scale" : [
                1,
                1.0000001192092896,
                1.000000238418579
            ],
            "translation" : [
                7.283306987029836e-14,
                1.9505648612976074,
                -3.970576756273658e-07
            ]
        },
        {
            "children" : [
                17
            ],
            "name" : "Bone.008",
            "rotation" : [
                -0.2479947954416275,
                -8.020511338413527e-11,
                -9.984351123648594e-08,
                0.9687613844871521
            ],
            "scale" : [
                1,
                0.9999995231628418,
                0.9999996423721313
            ],
            "translation" : [
                1.3130544828515722e-13,
                1.696337103843689,
                3.879062262512889e-07
            ]
        },
        {
            "children" : [
                18
            ],
            "name" : "Bone.007",
            "rotation" : [
                -0.33364158868789673,
                -3.3519192976783074e-10,
                -1.3438436496926442e-07,
                0.9427000284194946
            ],
            "scale" : [
                0.9999999403953552,
                1,
                1.000000238418579
            ],
            "translation" : [
                -1.2002795675772338e-13,
                1.3915055990219116,
                1.2247157599176717e-07
            ]
        },
        {
            "children" : [
                19
            ],
            "name" : "Bone.006",
            "rotation" : [
                0.09278176724910736,
                -4.211824222721816e-10,
                3.6622882504389054e-08,
                0.9956864714622498
            ],
            "scale" : [
                0.9999998807907104,
                0.9999998211860657,
                0.9999997019767761
            ],
            "translation" : [
                -7.423979508404399e-15,
                1.5229195356369019,
                2.415163180558011e-09
            ]
        },
        {
            "children" : [
                20
            ],
            "name" : "Bone.005",
            "rotation" : [
                -0.48555225133895874,
                0.5140420794487,
                0.4855520725250244,
                0.5140418410301208
            ],
            "scale" : [
                0.9999997615814209,
                0.9999998211860657,
                1.0000001192092896
            ]
        },
        {
            "name" : "String",
            "rotation" : [
                1,
                0,
                -3.1391647326017846e-07,
                0
            ],
            "translation" : [
                7.62939453125e-06,
                -2.0641820430755615,
                0
            ]
        },
        {
            "name" : "IK.R",
            "rotation" : [
                0.7071069478988647,
                0,
                -0.7071065902709961,
                0
            ],
            "scale" : [
                1,
                0.9999999403953552,
                1
            ],
            "translation" : [
                5.560115337371826,
                -1.871131181716919,
                0
            ]
        },
        {
            "name" : "IK.L",
            "rotation" : [
                0.7071069478988647,
                0,
                -0.7071065902709961,
                0
            ],
            "scale" : [
                1,
                0.9999999403953552,
                1
            ],
            "translation" : [
                -5.560107707977295,
                -1.871131181716919,
                2.2737367544323206e-13
            ]
        },
        {
            "children" : [
                16,
                21,
                22,
                23,
                24
            ],
            "name" : "Main Bone",
            "rotation" : [
                -0.7071068286895752,
                0,
                0,
                0.7071068286895752
            ],
            "translation" : [
                -7.62939453125e-06,
                0,
                0
            ]
        },
        {
            "mesh" : 0,
            "name" : "Bow",
            "skin" : 0
        },
        {
            "children" : [
                26,
                25
            ],
            "name" : "Armature.001"
        }
    ],
    "animations" : [
        {
            "channels" : [
                {
                    "sampler" : 0,
                    "target" : {
                        "node" : 16,
                        "path" : "rotation"
                    }
                },
                {
                    "sampler" : 1,
                    "target" : {
                        "node" : 15,
                        "path" : "rotation"
                    }
                },
                {
                    "sampler" : 2,
                    "target" : {
                        "node" : 14,
                        "path" : "rotation"
                    }
                },
                {
                    "sampler" : 3,
                    "target" : {
                        "node" : 13,
                        "path" : "rotation"
                    }
                },
                {
                    "sampler" : 4,
                    "target" : {
                        "node" : 21,
                        "path" : "rotation"
                    }
                },
                {
                    "sampler" : 5,
                    "target" : {
                        "node" : 20,
                        "path" : "rotation"
                    }
                },
                {
                    "sampler" : 6,
                    "target" : {
                        "node" : 19,
                        "path" : "rotation"
                    }
                },
                {
                    "sampler" : 7,
                    "target" : {
                        "node" : 18,
                        "path" : "rotation"
                    }
                },
                {
                    "sampler" : 8,
                    "target" : {
                        "node" : 22,
                        "path" : "translation"
                    }
                },
                {
                    "sampler" : 9,
                    "target" : {
                        "node" : 23,
                        "path" : "translation"
                    }
                },
                {
                    "sampler" : 10,
                    "target" : {
                        "node" : 24,
                        "path" : "translation"
                    }
                }
            ],
            "name" : "bowani",
            "samplers" : [
                {
                    "input" : 7,
                    "interpolation" : "LINEAR",
                    "output" : 8
                },
                {
                    "input" : 7,
                    "interpolation" : "LINEAR",
                    "output" : 9
                },
                {
                    "input" : 7,
                    "interpolation" : "LINEAR",
                    "output" : 10
                },
                {
                    "input" : 7,
                    "interpolation" : "LINEAR",
                    "output" : 11
                },
                {
                    "input" : 7,
                    "interpolation" : "LINEAR",
                    "output" : 12
                },
                {
                    "input" : 7,
                    "interpolation" : "LINEAR",
                    "output" : 13
                },
                {
                    "input" : 7,
                    "interpolation" : "LINEAR",
                    "output" : 14
                },
                {
                    "input" : 7,
                    "interpolation" : "LINEAR",
                    "output" : 15
                },
                {
                    "input" : 7,
                    "interpolation" : "LINEAR",
                    "output" : 16
                },
                {
                    "input" : 7,
                    "interpolation" : "LINEAR",
                    "output" : 17
                },
                {
                    "input" : 7,
                    "interpolation" : "LINEAR",
                    "output" : 18
                }
            ]
        }
    ],
    "materials" : [
        {
            "doubleSided" : true,
            "name" : "rsMaterial1",
            "pbrMetallicRoughness" : {
                "baseColorTexture" : {
                    "index" : 0
                },
                "metallicFactor" : 0,
                "roughnessFactor" : 0.5527864098548889
            }
        }
    ],
    "meshes" : [
        {
            "name" : "Mesh.005",
            "primitives" : [
                {
                    "attributes" : {
                        "POSITION" : 0,
                        "NORMAL" : 1,
                        "TEXCOORD_0" : 2,
                        "JOINTS_0" : 3,
                        "WEIGHTS_0" : 4
                    },
                    "indices" : 5,
                    "material" : 0
                }
            ]
        }
    ],
    "textures" : [
        {
            "sampler" : 0,
            "source" : 0
        }
    ],
    "images" : [
        {
            "mimeType" : "image/png",
            "name" : "lambert1_baseColor",
            "uri" : "lambert1_baseColor.png"
        }
    ],
    "skins" : [
        {
            "inverseBindMatrices" : 6,
            "joints" : [
                25,
                16,
                15,
                14,
                13,
                12,
                21,
                20,
                19,
                18,
                17,
                22,
                23,
                24
            ],
            "name" : "Armature.001"
        }
    ],
    "accessors" : [
        {
            "bufferView" : 0,
            "componentType" : 5126,
            "count" : 1884,
            "max" : [
                8.52347183227539,
                0.34281033277511597,
                2.7517833709716797
            ],
            "min" : [
                -8.52347183227539,
                -0.33860883116722107,
                -0.8060729503631592
            ],
            "type" : "VEC3"
        },
        {
            "bufferView" : 1,
            "componentType" : 5126,
            "count" : 1884,
            "type" : "VEC3"
        },
        {
            "bufferView" : 2,
            "componentType" : 5126,
            "count" : 1884,
            "type" : "VEC2"
        },
        {
            "bufferView" : 3,
            "componentType" : 5121,
            "count" : 1884,
            "type" : "VEC4"
        },
        {
            "bufferView" : 4,
            "componentType" : 5126,
            "count" : 1884,
            "type" : "VEC4"
        },
        {
            "bufferView" : 5,
            "componentType" : 5123,
            "count" : 8244,
            "type" : "SCALAR"
        },
        {
            "bufferView" : 6,
            "componentType" : 5126,
            "count" : 14,
            "type" : "MAT4"
        },
        {
            "bufferView" : 7,
            "componentType" : 5126,
            "count" : 41,
            "max" : [
                1.6666666666666667
            ],
            "min" : [
                0
            ],
            "type" : "SCALAR"
        },
        {
            "bufferView" : 8,
            "componentType" : 5126,
            "count" : 41,
            "type" : "VEC4"
        },
        {
            "bufferView" : 9,
            "componentType" : 5126,
            "count" : 41,
            "type" : "VEC4"
        },
        {
            "bufferView" : 10,
            "componentType" : 5126,
            "count" : 41,
            "type" : "VEC4"
        },
        {
            "bufferView" : 11,
            "componentType" : 5126,
            "count" : 41,
            "type" : "VEC4"
        },
        {
            "bufferView" : 12,
            "componentType" : 5126,
            "count" : 41,
            "type" : "VEC4"
        },
        {
            "bufferView" : 13,
            "componentType" : 5126,
            "count" : 41,
            "type" : "VEC4"
        },
        {
            "bufferView" : 14,
            "componentType" : 5126,
            "count" : 41,
            "type" : "VEC4"
        },
        {
            "bufferView" : 15,
            "componentType" : 5126,
            "count" : 41,
            "type" : "VEC4"
        },
        {
            "bufferView" : 16,
            "componentType" : 5126,
            "count" : 41,
            "type" : "VEC3"
        },
        {
            "bufferView" : 17,
            "componentType" : 5126,
            "count" : 41,
            "type" : "VEC3"
        },
        {
            "bufferView" : 18,
            "componentType" : 5126,
            "count" : 41,
            "type" : "VEC3"
        }
    ],
    "bufferViews" : [
        {
            "buffer" : 0,
            "byteLength" : 22608,
            "byteOffset" : 0
        },
        {
            "buffer" : 0,
            "byteLength" : 22608,
            "byteOffset" : 22608
        },
        {
            "buffer" : 0,
            "byteLength" : 15072,
            "byteOffset" : 45216
        },
        {
            "buffer" : 0,
            "byteLength" : 7536,
            "byteOffset" : 60288
        },
        {
            "buffer" : 0,
            "byteLength" : 30144,
            "byteOffset" : 67824
        },
        {
            "buffer" : 0,
            "byteLength" : 16488,
            "byteOffset" : 97968
        },
        {
            "buffer" : 0,
            "byteLength" : 896,
            "byteOffset" : 114456
        },
        {
            "buffer" : 0,
            "byteLength" : 164,
            "byteOffset" : 115352
        },
        {
            "buffer" : 0,
            "byteLength" : 656,
            "byteOffset" : 115516
        },
        {
            "buffer" : 0,
            "byteLength" : 656,
            "byteOffset" : 116172
        },
        {
            "buffer" : 0,
            "byteLength" : 656,
            "byteOffset" : 116828
        },
        {
            "buffer" : 0,
            "byteLength" : 656,
            "byteOffset" : 117484
        },
        {
            "buffer" : 0,
            "byteLength" : 656,
            "byteOffset" : 118140
        },
        {
            "buffer" : 0,
            "byteLength" : 656,
            "byteOffset" : 118796
        },
        {
            "buffer" : 0,
            "byteLength" : 656,
            "byteOffset" : 119452
        },
        {
            "buffer" : 0,
            "byteLength" : 656,
            "byteOffset" : 120108
        },
        {
            "buffer" : 0,
            "byteLength" : 492,
            "byteOffset" : 120764
        },
        {
            "buffer" : 0,
            "byteLength" : 492,
            "byteOffset" : 121256
        },
        {
            "buffer" : 0,
            "byteLength" : 492,
            "byteOffset" : 121748
        }
    ],
    "samplers" : [
        {
            "magFilter" : 9729,
            "minFilter" : 9987
        }
    ],
    "buffers" : [
        {
            "byteLength" : 122240,
            "uri" : "bow_anim05.bin"
        }
    ]
}
